<svg width="20" height="21" viewBox="0 0 20 21" fill="none" xmlns="http://www.w3.org/2000/svg">
<g clip-path="url(#clip0_3146_1646)">
<path d="M15.8169 11.034C15.8081 9.40076 16.537 8.168 18.0122 7.26012C17.1868 6.06297 15.9399 5.40432 14.2934 5.27526C12.7348 5.15065 11.0313 6.19648 10.4078 6.19648C9.74925 6.19648 8.23891 5.31976 7.05347 5.31976C4.60357 5.35981 2 7.30018 2 11.2477C2 12.4137 2.21074 13.6182 2.63223 14.8614C3.19422 16.4947 5.22263 20.5 7.33886 20.4332C8.44527 20.4065 9.22678 19.6366 10.6669 19.6366C12.063 19.6366 12.7875 20.4332 14.0212 20.4332C16.155 20.4021 17.9902 16.7617 18.5259 15.1239C15.6633 13.7577 15.8169 11.1186 15.8169 11.034ZM13.3319 3.72652C14.5305 2.2846 14.4207 0.97174 14.3856 0.5C13.3275 0.562305 12.1026 1.22986 11.4045 2.05318C10.6361 2.93436 10.1839 4.0247 10.2805 5.253C11.4264 5.34201 12.4714 4.74566 13.3319 3.72652Z" fill="white"/>
</g>
<defs>
<clipPath id="clip0_3146_1646">
<rect width="20" height="20" fill="currentColor" transform="translate(0 0.5)"/>
</clipPath>
</defs>
</svg>
