<svg width="11" height="14" viewBox="0 0 11 14" fill="none" xmlns="http://www.w3.org/2000/svg">
<path d="M10.2406 11.241C10.5016 10.9427 10.6321 10.5513 10.5948 10.1598C10.5575 9.71238 10.1288 9.15313 9.62544 8.50067C9.58816 8.44474 9.53223 8.37017 9.49495 8.33289V5.25699C9.49495 3.0759 7.85447 1.23036 5.76659 1.00666V0.466045C5.76659 0.20506 5.56153 0 5.30054 0C5.03955 0 4.8345 0.20506 4.8345 0.466045V1.00666C3.92105 1.09987 3.06352 1.50999 2.39242 2.16245C1.57218 2.96405 1.10613 4.02663 1.10613 5.18242V8.35153C1.06885 8.40746 1.01292 8.46338 0.97564 8.51931C0.472311 9.17177 0.0435497 9.73103 0.00626605 10.1784C-0.0310176 10.5699 0.099475 10.9614 0.36046 11.2597C0.621446 11.5579 0.994282 11.7257 1.4044 11.7257H9.23396C9.58816 11.7071 9.96099 11.5393 10.2406 11.241ZM1.01292 10.6072C0.919715 10.514 0.882431 10.3835 0.901073 10.253C0.938356 10.0293 1.49761 9.32091 1.68403 9.07856C1.94501 8.74301 2.01958 8.6498 2.01958 8.46338V5.18242C2.01958 4.28762 2.37378 3.44874 3.0076 2.83356C3.62278 2.23702 4.42438 1.92011 5.26326 1.92011C5.30054 1.92011 5.33782 1.92011 5.37511 1.92011C7.1088 1.97603 8.52557 3.48602 8.52557 5.27563V8.48202C8.52557 8.66844 8.60014 8.76165 8.86113 9.0972C9.04754 9.32091 9.6068 10.0293 9.64408 10.253C9.66272 10.3835 9.6068 10.514 9.53223 10.6072C9.43902 10.7004 9.32717 10.7563 9.17804 10.7563H1.36712C1.23663 10.775 1.10613 10.719 1.01292 10.6072Z" fill="#565656"/>
<path d="M6.15824 12.4344C6.02774 12.8072 5.67355 13.0495 5.28207 13.0495C4.89059 13.0495 4.5364 12.8072 4.4059 12.4344C4.3127 12.192 4.05171 12.0615 3.80937 12.1547C3.56702 12.2479 3.43653 12.5089 3.52974 12.7513C3.79072 13.497 4.49911 14.0003 5.28207 14.0003C6.06503 14.0003 6.77341 13.497 7.0344 12.7513C7.12761 12.5089 6.99712 12.2479 6.75477 12.1547C6.51243 12.0615 6.25144 12.192 6.15824 12.4344Z" fill="#565656"/>
</svg>
