<svg width="25" height="26" viewBox="0 0 25 26" fill="none" xmlns="http://www.w3.org/2000/svg">
<path d="M12.2678 7.23464C13.5121 7.23464 14.686 7.5031 15.7893 8.04001C16.8927 8.57692 17.8116 9.34825 18.5459 10.354C18.6105 10.4329 18.6303 10.5069 18.6052 10.5759C18.5802 10.6449 18.5369 10.6997 18.4751 10.7406C18.4134 10.7814 18.3469 10.7994 18.2757 10.7945C18.2044 10.7897 18.142 10.7481 18.0886 10.6698C17.4214 9.73117 16.5731 9.01477 15.5436 8.52058C14.5141 8.02638 13.4222 7.77928 12.2678 7.77928C11.1232 7.77928 10.0448 8.03092 9.03268 8.53421C8.02057 9.03749 7.17956 9.74934 6.50966 10.6698C6.44794 10.7578 6.37897 10.8032 6.30274 10.8061C6.22651 10.8088 6.15754 10.7852 6.09582 10.7353C6.04496 10.6943 6.01411 10.6432 6.00325 10.582C5.99239 10.5207 6.00874 10.4565 6.05228 10.3894C6.79298 9.40453 7.70627 8.6325 8.79213 8.07329C9.87811 7.51419 11.0367 7.23464 12.2678 7.23464ZM12.2685 8.89848C13.8429 8.89848 15.1956 9.42294 16.3267 10.4719C17.4577 11.5208 18.0232 12.8204 18.0232 14.3706C18.0232 14.9412 17.8217 15.4177 17.4186 15.8C17.0155 16.1823 16.5244 16.3734 15.9454 16.3734C15.3708 16.3734 14.875 16.1823 14.4579 15.8C14.0408 15.4177 13.8323 14.9412 13.8323 14.3706C13.8323 13.963 13.681 13.6174 13.3785 13.3337C13.076 13.05 12.7149 12.9082 12.295 12.9082C11.8677 12.9082 11.5002 13.0488 11.1923 13.3301C10.8846 13.6113 10.7307 13.9581 10.7307 14.3706C10.7307 15.5423 11.079 16.5208 11.7755 17.306C12.4722 18.0912 13.3575 18.6372 14.4313 18.944C14.5152 18.9709 14.5736 19.0157 14.6065 19.0785C14.6395 19.1413 14.6441 19.2085 14.6205 19.2801C14.5969 19.3429 14.5588 19.3992 14.5062 19.4492C14.4535 19.4991 14.3787 19.5122 14.2816 19.4886C13.0907 19.1818 12.1104 18.5778 11.3406 17.6765C10.5709 16.7752 10.186 15.6732 10.186 14.3706C10.186 13.7987 10.3939 13.3213 10.8096 12.9382C11.2253 12.5552 11.7208 12.3637 12.2959 12.3637C12.8712 12.3637 13.3618 12.5552 13.7679 12.9382C14.1739 13.3213 14.377 13.7987 14.377 14.3706C14.377 14.783 14.5321 15.1298 14.8425 15.411C15.1528 15.6923 15.5191 15.833 15.9413 15.833C16.3634 15.833 16.7252 15.6911 17.0265 15.4075C17.3279 15.1238 17.4786 14.7781 17.4786 14.3706C17.4786 12.9787 16.9666 11.8088 15.9426 10.8609C14.9187 9.91289 13.696 9.43887 12.2745 9.43887C10.853 9.43887 9.63402 9.91419 8.61742 10.8648C7.60083 11.8154 7.09253 12.9827 7.09253 14.3665C7.09253 14.6542 7.12587 15.0139 7.19254 15.4455C7.25921 15.8772 7.38837 16.3762 7.58 16.9426C7.60632 17.0216 7.60561 17.091 7.57788 17.1509C7.55015 17.2108 7.49817 17.2584 7.42194 17.2938C7.34571 17.3292 7.27467 17.3305 7.20882 17.2977C7.1431 17.2649 7.09708 17.2109 7.07076 17.1359C6.88467 16.6484 6.75097 16.1821 6.66967 15.7369C6.58848 15.2916 6.54789 14.8362 6.54789 14.3706C6.54789 12.8204 7.11059 11.5208 8.23598 10.4719C9.36149 9.42294 10.7057 8.89848 12.2685 8.89848ZM12.295 5.5C13.0383 5.5 13.7642 5.59145 14.4725 5.77436C15.181 5.95726 15.8662 6.21982 16.5281 6.56202C16.6252 6.61194 16.6804 6.67135 16.6936 6.74027C16.7068 6.8093 16.7002 6.87603 16.6738 6.94046C16.6475 7.00489 16.5998 7.05162 16.5309 7.08065C16.4619 7.10979 16.3911 7.10389 16.3185 7.06295C15.7022 6.7172 15.0539 6.46101 14.3738 6.29439C13.6937 6.12789 12.9986 6.04464 12.2885 6.04464C11.5903 6.04464 10.9062 6.13332 10.2363 6.31068C9.5664 6.48816 8.91697 6.73891 8.28802 7.06295C8.23893 7.09481 8.17851 7.10053 8.10677 7.08012C8.03514 7.05958 7.98481 7.01575 7.95578 6.9486C7.92664 6.88146 7.91708 6.81632 7.92711 6.75319C7.93714 6.69018 7.97572 6.63825 8.04287 6.59743C8.6946 6.23433 9.38037 5.96062 10.1002 5.7763C10.82 5.5921 11.5516 5.5 12.295 5.5ZM12.2957 10.629C13.3745 10.629 14.2979 10.9887 15.0659 11.7081C15.8338 12.4274 16.2178 13.3149 16.2178 14.3706C16.2178 14.4522 16.1928 14.518 16.1428 14.5679C16.0928 14.6178 16.0271 14.6428 15.9454 14.6428C15.8783 14.6428 15.8161 14.6178 15.7588 14.5679C15.7017 14.518 15.6732 14.4522 15.6732 14.3706C15.6732 13.4674 15.339 12.7087 14.6706 12.0946C14.0022 11.4806 13.2105 11.1735 12.2954 11.1735C11.3802 11.1735 10.5897 11.4806 9.92389 12.0946C9.25812 12.7087 8.92523 13.467 8.92523 14.3695C8.92523 15.3442 9.09492 16.1672 9.4343 16.8384C9.77379 17.5097 10.2621 18.1898 10.8994 18.8789C10.9702 18.9514 10.9988 19.0235 10.9852 19.0952C10.9716 19.1669 10.943 19.2245 10.8994 19.2681C10.8467 19.3207 10.7846 19.3493 10.713 19.3539C10.6412 19.3584 10.5745 19.3298 10.5128 19.2681C9.84383 18.5546 9.32119 17.8151 8.94488 17.0495C8.56869 16.2838 8.38059 15.3906 8.38059 14.37C8.38059 13.3147 8.76339 12.4274 9.52899 11.7081C10.2946 10.9887 11.2168 10.629 12.2957 10.629ZM12.2609 14.0983C12.3417 14.0983 12.4078 14.1255 12.4591 14.1799C12.5105 14.2344 12.5361 14.298 12.5361 14.3706C12.5361 15.2834 12.8615 16.032 13.5123 16.6162C14.1631 17.2004 14.9269 17.4926 15.8038 17.4926C15.92 17.4926 16.043 17.4867 16.1728 17.4749C16.3026 17.4631 16.4338 17.4454 16.5663 17.4218C16.6362 17.4072 16.6958 17.4175 16.7453 17.4526C16.7948 17.4875 16.8314 17.5454 16.855 17.6262C16.8786 17.6981 16.8654 17.761 16.8154 17.8149C16.7655 17.8687 16.7024 17.9074 16.6262 17.931C16.4955 17.9629 16.355 17.9885 16.2047 18.008C16.0545 18.0275 15.9208 18.0372 15.8038 18.0372C14.7808 18.0372 13.8897 17.6897 13.1303 16.9946C12.3711 16.2995 11.9915 15.4248 11.9915 14.3706C11.9915 14.298 12.0161 14.2344 12.0655 14.1799C12.1149 14.1255 12.18 14.0983 12.2609 14.0983Z" fill="#565656"/>
</svg>
