<svg width="28" height="21" viewBox="0 0 28 21" fill="none" xmlns="http://www.w3.org/2000/svg">
<path d="M16.3461 7.62439V5.85923C17.0465 5.52032 17.7795 5.26614 18.5452 5.09667C19.3109 4.92721 20.1059 4.84248 20.9302 4.84248C21.4473 4.84248 21.9495 4.88075 22.4368 4.95731C22.9241 5.03387 23.4131 5.13494 23.9037 5.26052V6.94308C23.4213 6.7676 22.9419 6.64029 22.4653 6.56113C21.9887 6.482 21.477 6.44244 20.9302 6.44244C20.1059 6.44244 19.3076 6.54437 18.5353 6.74823C17.763 6.95212 17.0333 7.24417 16.3461 7.62439ZM16.3461 14.9792V13.1883C17.03 12.8494 17.7609 12.5952 18.539 12.4257C19.3171 12.2563 20.1142 12.1715 20.9302 12.1715C21.4473 12.1715 21.9495 12.2098 22.4368 12.2864C22.9241 12.3629 23.4131 12.464 23.9037 12.5896V14.2721C23.4213 14.0967 22.9419 13.9693 22.4653 13.8902C21.9887 13.8111 21.477 13.7715 20.9302 13.7715C20.1059 13.7715 19.3076 13.8743 18.5353 14.0799C17.763 14.2855 17.0333 14.5853 16.3461 14.9792ZM16.3461 11.3147V9.52377C17.0465 9.18484 17.7795 8.93065 18.5452 8.76118C19.3109 8.59172 20.1059 8.50698 20.9302 8.50698C21.4473 8.50698 21.9495 8.54526 22.4368 8.62182C22.9241 8.69838 23.4131 8.79946 23.9037 8.92507V10.6076C23.4213 10.4321 22.9419 10.3048 22.4653 10.2257C21.9887 10.1465 21.477 10.107 20.9302 10.107C20.1059 10.107 19.3076 10.2132 18.5353 10.4257C17.763 10.6382 17.0333 10.9345 16.3461 11.3147ZM6.7565 16.0425C7.82367 16.0425 8.86193 16.1685 9.87127 16.4206C10.8806 16.6726 11.8825 17.0679 12.877 17.6064V4.41406C11.9717 3.79988 10.9921 3.33923 9.93818 3.03213C8.88423 2.72502 7.82367 2.57147 6.7565 2.57147C5.98339 2.57147 5.26108 2.63469 4.58956 2.76112C3.91805 2.88758 3.22795 3.09446 2.51927 3.38177C2.42014 3.41619 2.34992 3.46566 2.30863 3.53019C2.26733 3.59471 2.24668 3.66568 2.24668 3.74309V16.4347C2.24668 16.5552 2.28798 16.6434 2.37057 16.6993C2.45319 16.7552 2.54406 16.7616 2.64319 16.7186C3.2544 16.5019 3.89948 16.335 4.57842 16.218C5.25736 16.101 5.98339 16.0425 6.7565 16.0425ZM14.8097 17.6064C15.8042 17.0679 16.8061 16.6726 17.8154 16.4206C18.8248 16.1685 19.863 16.0425 20.9302 16.0425C21.7033 16.0425 22.4294 16.101 23.1083 16.218C23.7872 16.335 24.4323 16.5019 25.0435 16.7186C25.1427 16.7616 25.2335 16.7552 25.3161 16.6993C25.3987 16.6434 25.44 16.5552 25.44 16.4347V3.74309C25.44 3.66568 25.4194 3.59686 25.3781 3.53663C25.3368 3.4764 25.2666 3.42478 25.1675 3.38177C24.4588 3.09446 23.7687 2.88758 23.0972 2.76112C22.4256 2.63469 21.7033 2.57147 20.9302 2.57147C19.863 2.57147 18.8025 2.72502 17.7485 3.03213C16.6946 3.33923 15.715 3.79988 14.8097 4.41406V17.6064ZM13.8434 20.5586C12.8043 19.7603 11.6834 19.1435 10.4808 18.7083C9.27819 18.273 8.03675 18.0554 6.7565 18.0554C5.97018 18.0554 5.19791 18.1461 4.43968 18.3276C3.68143 18.5091 2.95044 18.7762 2.24671 19.1289C1.78748 19.3491 1.35055 19.3143 0.935901 19.0244C0.521277 18.7345 0.313965 18.3237 0.313965 17.7921V3.22181C0.313965 2.93278 0.385403 2.66138 0.528278 2.40762C0.671175 2.15386 0.877263 1.97107 1.14654 1.85924C2.01876 1.41709 2.92774 1.08978 3.87347 0.877305C4.8192 0.664831 5.78021 0.558594 6.7565 0.558594C8.01034 0.558594 9.23526 0.737094 10.4313 1.09409C11.6273 1.45107 12.7646 1.97796 13.8434 2.67474C14.9221 1.97796 16.0595 1.45107 17.2555 1.09409C18.4515 0.737094 19.6764 0.558594 20.9302 0.558594C21.9065 0.558594 22.8675 0.664831 23.8133 0.877305C24.759 1.08978 25.668 1.41709 26.5402 1.85924C26.8095 1.97107 27.0155 2.15386 27.1584 2.40762C27.3013 2.66138 27.3728 2.93278 27.3728 3.22181V17.7921C27.3728 18.3237 27.1572 18.7302 26.726 19.0115C26.2949 19.2928 25.8414 19.3233 25.3657 19.1031C24.6702 18.759 23.9495 18.4984 23.2037 18.3212C22.4578 18.144 21.7 18.0554 20.9302 18.0554C19.65 18.0554 18.4085 18.273 17.2059 18.7083C16.0033 19.1435 14.8824 19.7603 13.8434 20.5586Z" fill="#565656"/>
</svg>
