<svg width="30" height="33" viewBox="0 0 30 33" fill="none" xmlns="http://www.w3.org/2000/svg">
<rect x="0.5" y="0.5" width="29" height="32" rx="5" fill="#EEEEEE"/>
<path d="M9.87997 7.3335C10.2627 7.3335 10.573 7.61763 10.573 7.96811V9.24826C11.1877 9.23734 11.8767 9.23734 12.6519 9.23734H16.3479C17.1231 9.23734 17.8122 9.23734 18.4269 9.24826V7.96811C18.4269 7.61763 18.7371 7.3335 19.1198 7.3335C19.5026 7.3335 19.8128 7.61763 19.8128 7.96811V9.3044C21.1428 9.40193 22.0159 9.64128 22.6573 10.2287C23.2987 10.8161 23.5601 11.6156 23.6666 12.8335V13.7502H5.33325V12.8335C5.43975 11.6156 5.70111 10.8161 6.34254 10.2287C6.98398 9.64128 7.85705 9.40193 9.18697 9.3044V7.96811C9.18697 7.61763 9.49724 7.3335 9.87997 7.3335Z" fill="#004EEB"/>
<path opacity="0.5" d="M23.6668 18.3333V16.5C23.6668 15.7309 23.6551 14.3598 23.6433 13.75H5.3388C5.32698 14.3598 5.3386 15.7309 5.3386 16.5V18.3333C5.3386 21.7903 5.3386 23.5188 6.41224 24.5927C7.48588 25.6667 9.21387 25.6667 12.6699 25.6667H16.3355C19.7915 25.6667 21.5195 25.6667 22.5932 24.5927C23.6668 23.5188 23.6668 21.7903 23.6668 18.3333Z" fill="#004EEB"/>
<path fill-rule="evenodd" clip-rule="evenodd" d="M16.3334 16.729C15.4475 16.729 14.7292 17.4472 14.7292 18.3332V20.1665C14.7292 21.0525 15.4475 21.7707 16.3334 21.7707C17.2194 21.7707 17.9376 21.0525 17.9376 20.1665V18.3332C17.9376 17.4472 17.2194 16.729 16.3334 16.729ZM16.3334 18.104C16.2068 18.104 16.1042 18.2067 16.1042 18.3332V20.1665C16.1042 20.2931 16.2068 20.3957 16.3334 20.3957C16.46 20.3957 16.5626 20.2931 16.5626 20.1665V18.3332C16.5626 18.2067 16.46 18.104 16.3334 18.104Z" fill="#004EEB"/>
<path d="M13.8125 17.4165C13.8125 17.1385 13.645 16.8878 13.3881 16.7814C13.1312 16.6749 12.8355 16.7338 12.6389 16.9304L11.2639 18.3054C10.9954 18.5739 10.9954 19.0092 11.2639 19.2777C11.5323 19.5461 11.9677 19.5461 12.2361 19.2777L12.4375 19.0763V21.0832C12.4375 21.4629 12.7453 21.7707 13.125 21.7707C13.5047 21.7707 13.8125 21.4629 13.8125 21.0832V17.4165Z" fill="#004EEB"/>
</svg>
