<svg width="25" height="26" viewBox="0 0 25 26" fill="none" xmlns="http://www.w3.org/2000/svg">
<path d="M19.7206 13.5382C19.7178 13.4391 19.644 13.3611 19.5454 13.3523C19.447 13.3438 19.3587 13.4075 19.3379 13.5051C18.5316 17.3171 16.3651 19.2466 12.8949 19.2466C12.7351 19.2466 12.5717 19.2421 12.4063 19.2341C9.43433 19.0865 7.13184 16.8731 6.67662 13.726C6.31349 11.2139 7.90101 8.40076 10.2908 7.32117C12.6252 6.26642 15.4158 6.69504 16.8836 8.3064L15.2007 8.40277L15.2147 8.89488H18.2829L18.0909 6.00342L17.5968 6.00041L17.4713 7.60951C15.8818 6.47094 14.1623 5.9186 12.4889 6.00969C10.8216 6.10079 9.28024 6.81826 8.031 8.08431C5.76767 10.3783 5.33879 14.077 7.03347 16.6882C8.40291 18.7982 10.6432 20 12.9376 20C13.6834 20 14.4343 19.873 15.1633 19.609C17.919 18.612 19.7926 16.1153 19.7206 13.5382Z" fill="#565656"/>
<path d="M10.0431 13.2511V12.7424L9.24233 12.9035L9.23731 12.8885L9.78113 12.2488L9.33795 11.9971L9.05086 12.7675H9.04082L8.75875 11.9971L8.3103 12.2538L8.84407 12.8885L8.8393 12.8985L8.05859 12.7424V13.2511L8.84909 13.105V13.1151L8.3103 13.7447L8.74344 14.0064L9.0358 13.231L9.04584 13.2262L9.33293 14.0064L9.78113 13.7447L9.23229 13.1251L9.23731 13.11L10.0431 13.2511Z" fill="#565656"/>
<path d="M12.5814 13.2511V12.7424L11.7807 12.9035L11.7756 12.8885L12.3197 12.2488L11.8763 11.9971L11.5892 12.7675H11.5791L11.2971 11.9971L10.8489 12.2538L11.3826 12.8885L11.3776 12.8985L10.5972 12.7424V13.2511L11.3879 13.105V13.1151L10.8489 13.7447L11.282 14.0064L11.5741 13.231L11.5842 13.2262L11.8712 14.0064L12.3197 13.7447L11.7706 13.1251L11.7756 13.11L12.5814 13.2511Z" fill="#565656"/>
<path d="M15.1198 13.2511V12.7424L14.3192 12.9035L14.314 12.8885L14.8578 12.2488L14.4149 11.9971L14.1275 12.7675H14.1175L13.8354 11.9971L13.3872 12.2538L13.921 12.8885L13.916 12.8985L13.1353 12.7424V13.2511L13.926 13.105V13.1151L13.3872 13.7447L13.8204 14.0064L14.1127 13.231L14.1227 13.2262L14.4096 14.0064L14.8578 13.7447L14.3092 13.1251L14.314 13.11L15.1198 13.2511Z" fill="#565656"/>
<path d="M17.6584 13.2511V12.7424L16.8576 12.9035L16.8528 12.8885L17.3964 12.2488L16.9532 11.9971L16.6661 12.7675H16.6561L16.374 11.9971L15.9258 12.2538L16.4596 12.8885L16.4548 12.8985L15.6738 12.7424V13.2511L16.4648 13.105V13.1151L15.9258 13.7447L16.3589 14.0064L16.651 13.231L16.6611 13.2262L16.9482 14.0064L17.3964 13.7447L16.8473 13.1251L16.8528 13.11L17.6584 13.2511Z" fill="#565656"/>
</svg>
