<svg width="19" height="15" viewBox="0 0 19 15" fill="none" xmlns="http://www.w3.org/2000/svg">
<path d="M18.6387 7.40234C18.6387 7.1582 18.541 6.93359 18.3457 6.74805L11.8711 0.292969C11.6562 0.078125 11.4512 0 11.2168 0C10.7383 0 10.3672 0.351562 10.3672 0.839844C10.3672 1.07422 10.4453 1.29883 10.6016 1.45508L12.7891 3.68164L16.666 7.2168L16.8613 6.72852L13.7168 6.5332H1.36328C0.855468 6.5332 0.503906 6.89453 0.503906 7.40234C0.503906 7.91016 0.855468 8.27148 1.36328 8.27148H13.7168L16.8613 8.07617L16.666 7.59766L12.7891 11.123L10.6016 13.3496C10.4453 13.4961 10.3672 13.7305 10.3672 13.9648C10.3672 14.4531 10.7383 14.8047 11.2168 14.8047C11.4512 14.8047 11.6562 14.7168 11.8516 14.5312L18.3457 8.05664C18.541 7.87109 18.6387 7.64648 18.6387 7.40234Z" fill="#004EEB"/>
</svg>
