<svg width="18" height="21" viewBox="0 0 18 21" fill="none" xmlns="http://www.w3.org/2000/svg">
<path d="M2 20.9751C1.6 20.9751 1.25 20.8251 0.95 20.5251C0.65 20.2251 0.5 19.8751 0.5 19.4751V4.4001H2V19.4751H13.85V20.9751H2ZM5 17.9751C4.6 17.9751 4.25 17.8251 3.95 17.5251C3.65 17.2251 3.5 16.8751 3.5 16.4751V2.4751C3.5 2.0751 3.65 1.7251 3.95 1.4251C4.25 1.1251 4.6 0.975098 5 0.975098H16C16.4 0.975098 16.75 1.1251 17.05 1.4251C17.35 1.7251 17.5 2.0751 17.5 2.4751V16.4751C17.5 16.8751 17.35 17.2251 17.05 17.5251C16.75 17.8251 16.4 17.9751 16 17.9751H5ZM5 16.4751H16V2.4751H5V16.4751Z" fill="#101010"/>
</svg>
