<svg width="31" height="24" viewBox="0 0 31 24" fill="none" xmlns="http://www.w3.org/2000/svg">
<path d="M28.1262 4.79557C26.7227 4.79557 25.5849 5.93334 25.5849 7.33685C25.5849 8.00525 25.8488 8.60794 26.27 9.06156L21.7152 13.5627L16.1568 4.98534C17.2399 4.69372 18.0407 3.71515 18.0407 2.54034C18.0407 1.13778 16.903 0 15.4995 0C14.0959 0 12.9582 1.13778 12.9582 2.54034C12.9582 3.71515 13.759 4.69372 14.8421 4.98534L9.28373 13.5627L4.72889 9.06156C5.1501 8.60794 5.414 8.00525 5.414 7.33685C5.414 5.93334 4.27622 4.79557 2.87271 4.79557C1.4692 4.79557 0.331543 5.93334 0.331543 7.33685C0.331543 8.74037 1.46932 9.87814 2.87283 9.87814V24H15.4995H28.1262V9.87814C29.5297 9.87814 30.6675 8.74037 30.6675 7.33685C30.6675 5.93334 29.5297 4.79557 28.1262 4.79557Z" fill="#004EEB"/>
</svg>
