<?xml version="1.0" encoding="UTF-8" standalone="no"?>
<svg
   width="30.335957"
   height="24"
   viewBox="0 0 30.335957 24"
   fill="none"
   version="1.1"
   id="svg1"
   xmlns:xlink="http://www.w3.org/1999/xlink"
   xmlns="http://www.w3.org/2000/svg"
   xmlns:svg="http://www.w3.org/2000/svg">
  <defs
     id="defs1">
    <linearGradient
       id="linearGradient1">
      <stop
         style="stop-color:#f087fe;stop-opacity:1;"
         offset="0.3067193"
         id="stop1" />
      <stop
         style="stop-color:#4658f1;stop-opacity:1;"
         offset="1"
         id="stop2" />
    </linearGradient>
    <linearGradient
       xlink:href="#linearGradient1"
       id="linearGradient2"
       x1="15.499521"
       y1="-3.1679783"
       x2="15.499521"
       y2="27.167978"
       gradientUnits="userSpaceOnUse"
       gradientTransform="translate(-0.331543)" />
  </defs>
  <path
     d="m 27.794657,4.79557 c -1.4035,0 -2.5413,1.13777 -2.5413,2.54128 0,0.6684 0.2639,1.27109 0.6851,1.72471 l -4.5548,4.50114 -5.5584,-8.57736 c 1.0831,-0.29162 1.8839,-1.27019 1.8839,-2.445 0,-1.40256 -1.1377,-2.54034 -2.5412,-2.54034 -1.4036,0 -2.5413,1.13778 -2.5413,2.54034 0,1.17481 0.8008,2.15338 1.8839,2.445 L 8.952187,13.5627 4.397347,9.06156 c 0.42121,-0.45362 0.68511,-1.05631 0.68511,-1.72471 0,-1.40351 -1.13778,-2.54128 -2.54129,-2.54128 C 1.137657,4.79557 0,5.93334 0,7.33685 0,8.74037 1.137777,9.87814 2.541287,9.87814 V 24 h 12.62667 12.6267 V 9.87814 c 1.4035,0 2.5413,-1.13777 2.5413,-2.54129 0,-1.40351 -1.1378,-2.54128 -2.5413,-2.54128 z"
     fill="#004EEB"
     id="path1"
     style="fill:url(#linearGradient2)" />
</svg>
