<svg width="25" height="25" viewBox="0 0 25 25" fill="none" xmlns="http://www.w3.org/2000/svg">
<path d="M22.2955 14.1202L22.5247 11.6849C22.7047 9.77229 22.7947 8.81598 22.4675 8.42066C22.2905 8.20682 22.0498 8.07579 21.7925 8.05319C21.3168 8.01141 20.7194 8.69149 19.5246 10.0517C18.9067 10.7551 18.5978 11.1068 18.2531 11.1613C18.0622 11.1914 17.8676 11.1604 17.6912 11.0717C17.373 10.9115 17.1608 10.4767 16.7364 9.6071L14.4996 5.02344C13.6977 3.38021 13.2967 2.55859 12.6865 2.55859C12.0763 2.55859 11.6753 3.38021 10.8734 5.02345L8.63659 9.60711C8.21222 10.4767 8.00003 10.9115 7.68178 11.0717C7.50544 11.1604 7.31086 11.1914 7.11989 11.1613C6.77524 11.1068 6.46629 10.7551 5.84839 10.0517C4.6536 8.69149 4.0562 8.01141 3.58051 8.05319C3.32318 8.07579 3.0825 8.20682 2.90551 8.42066C2.57832 8.81598 2.66832 9.77229 2.84833 11.6849L3.07752 14.1202C3.45517 18.1328 3.644 20.1391 4.82661 21.3488C6.00923 22.5586 7.78169 22.5586 11.3266 22.5586H14.0464C17.5913 22.5586 19.3638 22.5586 20.5464 21.3488C21.729 20.1391 21.9178 18.1328 22.2955 14.1202Z" stroke="#565656" stroke-width="2"/>
</svg>
