<svg width="25" height="26" viewBox="0 0 25 26" fill="none" xmlns="http://www.w3.org/2000/svg">
<path d="M10.9776 16.945C11.2693 16.945 11.508 16.7053 11.508 16.4124V11.9423C11.508 11.6455 11.2693 11.4097 10.9776 11.4097C10.6859 11.4097 10.4473 11.6493 10.4473 11.9423V16.4124C10.4473 16.7053 10.6859 16.945 10.9776 16.945Z" fill="#565656"/>
<path d="M13.7808 16.945C14.0725 16.945 14.3112 16.7053 14.3112 16.4124V11.9423C14.3112 11.6455 14.0725 11.4097 13.7808 11.4097C13.4891 11.4097 13.2505 11.6493 13.2505 11.9423V16.4124C13.2505 16.7053 13.4891 16.945 13.7808 16.945Z" fill="#565656"/>
<path d="M18.2322 7.86413H14.766V7.29348C14.766 6.58207 14.2053 6 13.4969 6H11.2656C10.5572 6 9.99658 6.58207 9.99658 7.29348V7.86413H6.53035C6.23866 7.86413 6 8.1038 6 8.39674C6 8.68967 6.23866 8.92935 6.53035 8.92935H7.64409V18.7065C7.64409 19.4179 8.21233 20 8.92072 20H15.8342C16.5426 20 17.1109 19.4179 17.1109 18.7065V8.92935H18.2284C18.5201 8.92935 18.7588 8.68967 18.7588 8.39674C18.7588 8.1038 18.5277 7.86413 18.2322 7.86413ZM11.0497 7.29348C11.0535 7.16793 11.1368 7.06522 11.2618 7.06522H13.4931C13.6181 7.06522 13.7015 7.16793 13.7015 7.29348V7.86413H11.0497V7.29348ZM16.054 18.7065C16.054 18.8321 15.963 18.9348 15.838 18.9348H8.92072C8.79571 18.9348 8.70479 18.8321 8.70479 18.7065V8.92935H16.054V18.7065Z" fill="#565656"/>
</svg>
