<svg width="25" height="24" viewBox="0 0 25 24" fill="none" xmlns="http://www.w3.org/2000/svg">
<rect x="0.5" width="24" height="24" rx="12" fill="#004EEB"/>
<mask id="mask0_1381_3382" style="mask-type:alpha" maskUnits="userSpaceOnUse" x="8" y="7" width="9" height="10">
<path d="M10.8921 15.5871L15.0589 11.4203L13.0798 9.44118L8.913 13.6079C8.85564 13.6654 8.81489 13.7373 8.79508 13.816L8.33325 16.1668L10.6836 15.705C10.7626 15.6853 10.8347 15.6445 10.8921 15.5871ZM16.404 10.0752C16.5721 9.90702 16.6666 9.67897 16.6666 9.44118C16.6666 9.2034 16.5721 8.97534 16.404 8.80718L15.6929 8.09605C15.5247 7.92794 15.2967 7.8335 15.0589 7.8335C14.8211 7.8335 14.5931 7.92794 14.4249 8.09605L13.7138 8.80718L15.6929 10.7863L16.404 10.0752Z" fill="#006FFD"/>
</mask>
<g mask="url(#mask0_1381_3382)">
<rect x="7.5" y="7" width="10" height="10" fill="#FDFDFC"/>
</g>
</svg>
