<svg width="25" height="26" viewBox="0 0 25 26" fill="none" xmlns="http://www.w3.org/2000/svg">
<path fill-rule="evenodd" clip-rule="evenodd" d="M11.296 6.2282C10.2189 6.89279 7.76958 8.40437 6.72681 9.0479C6.27514 9.3268 6 9.81977 6 10.3506V15.847C6 16.3943 6.29229 16.9002 6.76665 17.1734L11.3177 19.7955C11.7953 20.0708 12.384 20.0679 12.859 19.7882C13.9362 19.1536 16.4243 17.6878 17.493 17.0583C17.9601 16.783 18.2468 16.2813 18.2468 15.7392C18.2468 14.4783 18.2468 11.5111 18.2468 10.2502C18.2468 9.70808 17.9601 9.20645 17.493 8.93115C16.4302 8.30509 13.9637 6.85197 12.877 6.21187C12.3878 5.92366 11.7792 5.92987 11.296 6.2282ZM7.26289 9.91644L11.8319 7.09658C11.9931 6.99713 12.1959 6.99517 12.359 7.09119L16.9749 9.81047C17.1307 9.90224 17.2262 10.0694 17.2262 10.2502V15.7392C17.2262 15.92 17.1307 16.0872 16.9749 16.179L12.3411 18.9089C12.1827 19.0021 11.9864 19.0031 11.8272 18.9113L7.27612 16.2892C7.11805 16.1981 7.02057 16.0294 7.02057 15.847V10.3506C7.02057 10.1736 7.11234 10.0094 7.26289 9.91644ZM12.1234 16.2996C12.4051 16.2996 12.6337 16.5284 12.6337 16.8099C12.6337 17.0916 12.4051 17.3202 12.1234 17.3202C11.8417 17.3202 11.6131 17.0916 11.6131 16.8099C11.6131 16.5284 11.8417 16.2996 12.1234 16.2996ZM12.6337 14.7688V9.18343C12.6337 8.90175 12.4051 8.67315 12.1234 8.67315C11.8417 8.67315 11.6131 8.90175 11.6131 9.18343V14.7688C11.6131 15.0505 11.8417 15.2791 12.1234 15.2791C12.4051 15.2791 12.6337 15.0505 12.6337 14.7688Z" fill="#565656"/>
</svg>
