<svg width="20" height="21" viewBox="0 0 20 21" fill="none" xmlns="http://www.w3.org/2000/svg">
<g clip-path="url(#clip0_3146_1643)">
<g clip-path="url(#clip1_3146_1643)">
<path d="M19.1739 10.2101C19.1739 9.43122 19.112 8.86285 18.9782 8.27344H10.2724V11.7889H15.3825C15.2795 12.6625 14.7232 13.9782 13.4868 14.8623L13.4695 14.98L16.2221 17.1585L16.4128 17.1779C18.1642 15.5254 19.1739 13.094 19.1739 10.2101Z" fill="#4285F4"/>
<path d="M10.2724 19.4724C12.7759 19.4724 14.8776 18.6303 16.4128 17.1778L13.4868 14.8622C12.7038 15.4201 11.6529 15.8095 10.2724 15.8095C7.82036 15.8095 5.73924 14.1571 4.99738 11.873L4.88864 11.8825L2.02644 14.1454L1.98901 14.2517C3.51379 17.3462 6.64581 19.4724 10.2724 19.4724Z" fill="#34A853"/>
<path d="M4.9974 11.8731C4.80165 11.2837 4.68836 10.6521 4.68836 9.99955C4.68836 9.34693 4.80165 8.71543 4.9871 8.12602L4.98191 8.00049L2.08385 5.70117L1.98903 5.74725C1.3606 7.03136 1 8.47337 1 9.99955C1 11.5257 1.3606 12.9677 1.98903 14.2518L4.9974 11.8731Z" fill="#FBBC05"/>
<path d="M10.2724 4.19016C12.0135 4.19016 13.188 4.95851 13.8577 5.6006L16.4746 2.99029C14.8674 1.46411 12.7759 0.527344 10.2724 0.527344C6.64581 0.527344 3.51379 2.65346 1.98901 5.7479L4.98708 8.12667C5.73924 5.84267 7.82036 4.19016 10.2724 4.19016Z" fill="#EB4335"/>
</g>
</g>
<defs>
<clipPath id="clip0_3146_1643">
<rect width="20" height="20" fill="white" transform="translate(0 0.5)"/>
</clipPath>
<clipPath id="clip1_3146_1643">
<rect x="1" y="0.5" width="18.1739" height="19" rx="9.08696" fill="white"/>
</clipPath>
</defs>
</svg>
