<svg width="25" height="26" viewBox="0 0 25 26" fill="none" xmlns="http://www.w3.org/2000/svg">
<path d="M20.8636 9.53535L17.4343 6.10606C17.2929 5.96465 17.0808 5.96465 16.9394 6.10606L15.7374 7.30808C15.5606 7.48485 15.3838 7.59091 15.1717 7.69697L14.3939 7.48485C13.6869 7.30808 12.9444 7.34343 12.2727 7.59091C11.8131 7.76768 11.3889 8.01515 11.0354 8.36869C10.8586 8.29798 10.6818 8.26263 10.5404 8.22727C10.0455 8.15657 9.58586 7.90909 9.23232 7.55556L8.0303 6.35354C7.9596 6.28283 7.88889 6.24747 7.78283 6.24747C7.67677 6.24747 7.60606 6.28283 7.53535 6.35354L4.10606 9.78283C3.96465 9.92424 3.96465 10.1364 4.10606 10.2778L5.30808 11.4798C5.66162 11.8333 5.90909 12.2929 5.9798 12.7879C6.0505 13.1768 6.19192 13.5657 6.36869 13.8838L5.94444 14.3788C5.5202 14.9091 5.59091 15.6869 6.12121 16.1111C6.33333 16.2879 6.61616 16.3939 6.89899 16.3939C6.93434 16.3939 6.9697 16.3939 7.0404 16.3939C7.07576 16.7121 7.21717 17.0303 7.5 17.2424C7.71212 17.4192 7.99495 17.5253 8.27778 17.5253C8.31313 17.5253 8.34848 17.5253 8.41919 17.5253C8.45455 17.8434 8.59596 18.1616 8.87879 18.3737C9.09091 18.5505 9.37374 18.6566 9.65657 18.6566C9.69192 18.6566 9.72727 18.6566 9.79798 18.6566C9.83333 18.9747 9.97475 19.2576 10.2576 19.4697C10.4697 19.6465 10.7525 19.7525 11.0354 19.7525C11.3182 19.7525 11.601 19.6465 11.8131 19.4697L11.9545 19.6111C12.202 19.8586 12.5556 20 12.8737 20C13.1566 20 13.4394 19.8939 13.6869 19.6818C13.899 19.4697 14.0404 19.2222 14.0758 18.9394C14.1465 18.9394 14.2172 18.9747 14.2879 18.9747C14.6061 18.9747 14.9242 18.8333 15.1364 18.6212C15.2778 18.4798 15.3838 18.3384 15.4192 18.1616C15.6313 18.303 15.8788 18.3737 16.1263 18.3737C16.4444 18.3737 16.7626 18.2677 16.9747 18.0202C17.2222 17.7727 17.3283 17.4545 17.3283 17.1364C17.3283 17.1364 17.3283 17.1364 17.3636 17.1364C17.6465 17.1364 17.9293 17.0303 18.1768 16.8182C18.4242 16.6061 18.5657 16.2879 18.5657 15.9343C18.5657 15.6162 18.4596 15.2626 18.2121 15.0505L17.8586 14.697L18.2475 14.3081C18.7071 13.8485 19.0253 13.2475 19.1313 12.6111C19.202 12.1162 19.4495 11.6566 19.803 11.303L21.005 10.101C21.005 9.88889 21.005 9.67677 20.8636 9.53535ZM6.58081 15.5808C6.36869 15.404 6.33333 15.0859 6.5101 14.8737L7.57071 13.601C7.67677 13.4949 7.81818 13.4242 7.9596 13.4242C8.06566 13.4242 8.20707 13.4596 8.27778 13.5303C8.4899 13.7071 8.52525 14.0253 8.34848 14.2374L7.28788 15.5101C7.14646 15.7222 6.79293 15.7576 6.58081 15.5808ZM7.92424 16.6768C7.71212 16.5 7.67677 16.1818 7.85353 15.9697L8.91414 14.697L9.4798 14.0253C9.58586 13.9192 9.72727 13.8485 9.86869 13.8485C9.97475 13.8485 10.1162 13.8838 10.1869 13.9545C10.2929 14.0253 10.3636 14.1667 10.3636 14.3081C10.3636 14.4495 10.3283 14.5909 10.2576 14.697L10.0808 14.9091L8.66667 16.6414C8.4899 16.8182 8.13636 16.8535 7.92424 16.6768ZM9.26768 17.8081C9.16162 17.7374 9.09091 17.596 9.09091 17.4545C9.09091 17.3131 9.12626 17.1717 9.19697 17.0657L10.6111 15.3333C10.7172 15.2273 10.8586 15.1566 11 15.1566C11.1061 15.1566 11.2475 15.1919 11.3182 15.2626C11.4242 15.3333 11.4949 15.4747 11.4949 15.6162C11.4949 15.7576 11.4596 15.899 11.3889 16.005L9.97475 17.7374C9.83333 17.9141 9.4798 17.9495 9.26768 17.8081ZM10.6111 18.904C10.5051 18.8333 10.4343 18.6919 10.4343 18.5505C10.4343 18.4091 10.4697 18.2677 10.5404 18.1616L11.601 16.8889C11.7071 16.7828 11.8485 16.7121 11.9899 16.7121C12.096 16.7121 12.2374 16.7475 12.3081 16.8182C12.4141 16.8889 12.4848 17.0303 12.4848 17.1717C12.4848 17.3131 12.4495 17.4545 12.3788 17.5606L11.3182 18.8333C11.1768 19.0455 10.8232 19.0808 10.6111 18.904ZM13.0859 19.1162C12.8737 19.2929 12.5556 19.2576 12.3434 19.0455L12.202 18.904L12.8384 18.0909L13.1212 18.3737C13.2273 18.4798 13.2626 18.6212 13.2626 18.7626C13.2626 18.8687 13.1919 19.0101 13.0859 19.1162ZM17.6111 16.2172C17.399 16.3939 17.0808 16.3586 16.8687 16.1465L13.2273 12.5404C13.0859 12.399 12.8737 12.399 12.7323 12.5404C12.5909 12.6818 12.5909 12.8939 12.7323 13.0354L16.3737 16.6768L16.4091 16.7121C16.6212 16.9242 16.6212 17.2424 16.4091 17.4545C16.197 17.6667 15.8788 17.6667 15.6667 17.4545L14.2879 16.0758L11.9899 13.7778C11.8485 13.6364 11.6364 13.6364 11.4949 13.7778C11.3535 13.9192 11.3535 14.1313 11.4949 14.2727L13.7929 16.5707L14.5707 17.3485C14.6768 17.4545 14.7121 17.5606 14.7121 17.702C14.7121 17.8434 14.6414 17.9848 14.5707 18.0556C14.3586 18.2677 14.0404 18.2677 13.8283 18.0556L13.1919 17.4192C13.2273 17.3131 13.2273 17.2071 13.2273 17.0657C13.1919 16.7475 13.0505 16.4646 12.7677 16.2525C12.5909 16.1111 12.4141 16.0404 12.202 16.005C12.2374 15.8636 12.2727 15.6869 12.2374 15.5455C12.202 15.2273 12.0606 14.9444 11.7778 14.7323C11.5657 14.5556 11.3182 14.4848 11.0707 14.4495C11.0707 14.3788 11.0707 14.3081 11.0707 14.2374C11.0354 13.9192 10.8939 13.6364 10.6111 13.4242C10.399 13.2475 10.1162 13.1414 9.83333 13.1414C9.5505 13.1414 9.26768 13.2475 9.05556 13.4242C8.98485 13.2475 8.87879 13.1061 8.73737 12.9646C8.52525 12.7879 8.24242 12.6818 7.9596 12.6818C7.60606 12.6818 7.25253 12.8586 7.00505 13.1414L6.86364 13.3182C6.75758 13.1061 6.72222 12.8939 6.68687 12.6818C6.58081 12.0455 6.26263 11.4444 5.80303 10.9848L4.84848 10.0303L7.78283 7.09596L8.73737 8.05051C9.19697 8.5101 9.79798 8.82828 10.4343 8.93434L9.0202 10.2424C8.80808 10.4192 8.70202 10.702 8.70202 10.9495C8.70202 11.2323 8.80808 11.4798 8.98485 11.6919C9.30303 12.0455 9.79798 12.1162 10.2222 11.904L11.8838 11.0556C12.1313 10.9495 12.3788 10.8788 12.6616 10.9495C12.9091 10.9848 13.1212 11.0909 13.298 11.2677L17.6818 15.5101C17.7879 15.6162 17.8232 15.7576 17.8232 15.899C17.7879 16.005 17.7172 16.1465 17.6111 16.2172ZM19.1667 10.702C18.7071 11.1616 18.3889 11.7626 18.2828 12.399C18.2121 12.8939 17.9646 13.3535 17.6111 13.7071L17.2222 14.096L13.7222 10.702C13.4394 10.4192 13.1212 10.2778 12.7323 10.2071C12.3081 10.1364 11.8838 10.2071 11.4949 10.3838L9.83333 11.2323C9.69192 11.303 9.5505 11.2677 9.44444 11.1616C9.37374 11.0909 9.33838 11.0202 9.37374 10.9141C9.37374 10.8081 9.40909 10.7374 9.4798 10.702L11.5303 8.82828C11.8131 8.54545 12.1667 8.33333 12.5556 8.19192C13.1212 7.9798 13.6869 7.9798 14.2525 8.12121L15.0303 8.33333C15.0657 8.33333 15.0657 8.33333 15.101 8.33333C15.2071 8.40404 15.3131 8.40404 15.4192 8.33333C15.7374 8.19192 16.0202 7.9798 16.2677 7.73232L17.2222 6.77778L20.1566 9.71212L19.1667 10.702Z" fill="#565656"/>
</svg>
