<svg width="25" height="26" viewBox="0 0 25 26" fill="none" xmlns="http://www.w3.org/2000/svg">
<path d="M16.1144 13.9531H14.2575C13.9953 13.9531 13.7827 14.1657 13.7827 14.4279C13.7827 14.6901 13.9953 14.9027 14.2575 14.9027H16.1144C16.3766 14.9027 16.5892 14.6901 16.5892 14.4279C16.5892 14.1657 16.3766 13.9531 16.1144 13.9531Z" fill="#565656"/>
<path d="M12.1388 14.9027C12.4011 14.9027 12.6136 14.6901 12.6136 14.4279C12.6136 14.1657 12.4011 13.9531 12.1388 13.9531C11.8766 13.9531 11.6641 14.1657 11.6641 14.4279C11.6641 14.6901 11.8766 14.9027 12.1388 14.9027Z" fill="#565656"/>
<path d="M10.1955 14.9027C10.4577 14.9027 10.6703 14.6901 10.6703 14.4279C10.6703 14.1657 10.4577 13.9531 10.1955 13.9531C9.93327 13.9531 9.7207 14.1657 9.7207 14.4279C9.7207 14.6901 9.93327 14.9027 10.1955 14.9027Z" fill="#565656"/>
<path d="M8.25164 14.9027C8.51386 14.9027 8.72642 14.6901 8.72642 14.4279C8.72642 14.1657 8.51386 13.9531 8.25164 13.9531C7.98942 13.9531 7.77686 14.1657 7.77686 14.4279C7.77686 14.6901 7.98942 14.9027 8.25164 14.9027Z" fill="#565656"/>
<path d="M16.4489 9.25328C16.7111 9.25328 16.9237 9.04071 16.9237 8.77849C16.9237 8.51628 16.7111 8.30371 16.4489 8.30371C16.1867 8.30371 15.9741 8.51628 15.9741 8.77849C15.9741 9.04071 16.1867 9.25328 16.4489 9.25328Z" fill="#565656"/>
<path d="M14.5051 9.25328C14.7673 9.25328 14.9798 9.04071 14.9798 8.77849C14.9798 8.51628 14.7673 8.30371 14.5051 8.30371C14.2428 8.30371 14.0303 8.51628 14.0303 8.77849C14.0303 9.04071 14.2428 9.25328 14.5051 9.25328Z" fill="#565656"/>
<path d="M12.5612 9.25328C12.8234 9.25328 13.036 9.04071 13.036 8.77849C13.036 8.51628 12.8234 8.30371 12.5612 8.30371C12.299 8.30371 12.0864 8.51628 12.0864 8.77849C12.0864 9.04071 12.299 9.25328 12.5612 9.25328Z" fill="#565656"/>
<path d="M9.46819 20.0001C9.32528 20.0001 9.18095 19.9706 9.04231 19.9094C8.65726 19.7399 8.41892 19.3734 8.41892 18.9527V18.2994C8.41892 18.2467 8.37619 18.204 8.32349 18.204H6.89914C5.85176 18.204 5 17.3522 5 16.3048V12.5066C5 11.4592 5.85176 10.6074 6.89914 10.6074H17.3439C18.3913 10.6074 19.243 11.4592 19.243 12.5066V16.3048C19.243 17.3522 18.3913 18.204 17.3439 18.204H12.2039C11.9632 18.204 11.7329 18.2932 11.5558 18.4556L10.1694 19.7237C9.97051 19.9056 9.72268 20.0001 9.46819 20.0001ZM6.89866 11.557C6.37497 11.557 5.94909 11.9829 5.94909 12.5066V16.3048C5.94909 16.8285 6.37497 17.2544 6.89866 17.2544H8.32301C8.8994 17.2544 9.36801 17.723 9.36801 18.2994V18.9527C9.36801 18.9679 9.36801 19.0154 9.42499 19.0405C9.48433 19.0666 9.51709 19.0344 9.52849 19.0234L10.9144 17.7558C11.2667 17.4324 11.7248 17.2544 12.2039 17.2544H17.3439C17.8676 17.2544 18.2935 16.8285 18.2935 16.3048V12.5066C18.2935 11.9829 17.8676 11.557 17.3439 11.557H6.89866Z" fill="#565656"/>
<path d="M7.84801 11.0821H6.89844V7.89914C6.89844 6.85034 7.74878 6 8.79757 6H17.3437C18.3925 6 19.2428 6.85034 19.2428 7.89914V9.32111C19.2428 9.58319 19.0301 9.7959 18.768 9.7959C18.506 9.7959 18.2933 9.58319 18.2933 9.32111V7.89914C18.2933 7.3745 17.8683 6.94957 17.3437 6.94957H8.79757C8.27294 6.94957 7.84801 7.3745 7.84801 7.89914V11.0821Z" fill="#565656"/>
</svg>
