<svg width="24" height="25" viewBox="0 0 24 25" fill="none" xmlns="http://www.w3.org/2000/svg">
<path d="M2 12.7625C2 10.4741 2 9.32987 2.5192 8.38133C3.0384 7.4328 3.98695 6.8441 5.88403 5.66672L7.88403 4.42546C9.88939 3.18088 10.8921 2.55859 12 2.55859C13.1079 2.55859 14.1106 3.18088 16.116 4.42546L18.116 5.66671C20.0131 6.8441 20.9616 7.4328 21.4808 8.38133C22 9.32987 22 10.4741 22 12.7625V14.2836C22 18.1844 22 20.1349 20.8284 21.3467C19.6569 22.5586 17.7712 22.5586 14 22.5586H10C6.22876 22.5586 4.34315 22.5586 3.17157 21.3467C2 20.1349 2 18.1844 2 14.2836V12.7625Z" stroke="#565656" stroke-width="2"/>
<path d="M15 18.5586H9" stroke="#565656" stroke-width="2" stroke-linecap="round"/>
</svg>
