<svg width="70" height="40" viewBox="0 0 70 40" fill="none" xmlns="http://www.w3.org/2000/svg">
<rect width="70" height="40" rx="4" fill="#EEEEF0"/>
<path d="M26.2988 11.0004V28.23H25.1157V20.1796H3.18289V28.2298H2V11.0004H3.18312V19.0466H25.1159V11.0004H26.2988ZM23.9351 11.0004H22.752V16.7519H5.54936V11.0004H4.36624V17.8849H23.9351V11.0004ZM7.92043 11.0004H6.75042V15.5858H7.92043V11.0004ZM21.5606 11.0004H20.3775V15.5858H21.5606V11.0004ZM4.36624 28.2298H5.54936V22.4785H22.752V28.23H23.9351V21.3326H4.36624V28.2298ZM20.3678 28.2298H21.5509V23.6317H20.3678V28.2298ZM6.74099 28.2298H7.92411V23.6317H6.74099V28.2298Z" fill="#E12991"/>
<path d="M32.8734 11V16.0661H31.8496V13.9672H29.729V16.0661H28.6979V11H29.729V13.012H31.8496V11H32.8734ZM37.0794 12.4473V16.0661H36.1154V15.6609C35.8912 15.9865 35.5027 16.1674 35.002 16.1674C34.2099 16.1674 33.5898 15.6319 33.5898 14.6693V12.4475H34.5537V14.5535C34.5537 15.0458 34.8601 15.2991 35.2934 15.2991C35.7642 15.2991 36.1154 15.0313 36.1154 14.4016V12.4475L37.0794 12.4473ZM43.5051 13.8369V16.0661H42.5412V13.9021C42.5412 13.4751 42.3169 13.2147 41.9135 13.2147C41.4875 13.2147 41.2185 13.4898 41.2185 14.0325V16.0661H40.2545V13.9021C40.2545 13.4751 40.0303 13.2147 39.6269 13.2147C39.2158 13.2147 38.9244 13.4898 38.9244 14.0325V16.0661H37.9605V12.4473H38.9244V12.8309C39.1337 12.527 39.4849 12.3459 39.9631 12.3459C40.4263 12.3459 40.7702 12.5342 40.9793 12.867C41.2109 12.5413 41.5846 12.3459 42.0927 12.3459C42.9446 12.3462 43.5051 12.9322 43.5051 13.8369ZM48.1293 12.4473V16.0661H47.1653V15.639C46.8962 15.9647 46.4928 16.1674 45.9473 16.1674C44.9534 16.1674 44.1314 15.3352 44.1314 14.2568C44.1314 13.1784 44.9534 12.3462 45.9473 12.3462C46.4928 12.3462 46.8962 12.5489 47.1653 12.8745V12.4475L48.1293 12.4473ZM47.1653 14.2568C47.1653 13.6489 46.7244 13.2363 46.1267 13.2363C45.5365 13.2363 45.0956 13.6489 45.0956 14.2568C45.0956 14.8647 45.5365 15.2773 46.1267 15.2773C46.7244 15.2773 47.1653 14.8647 47.1653 14.2568ZM52.4921 13.8442V16.0661H51.5282V13.9601C51.5282 13.468 51.2218 13.2147 50.7885 13.2147C50.3177 13.2147 49.9665 13.4825 49.9665 14.1122V16.0663H49.0026V12.4473H49.9665V12.8525C50.1908 12.5268 50.5792 12.3459 51.0799 12.3459C51.872 12.3462 52.4921 12.8817 52.4921 13.8442ZM30.4246 20.389H29.7288V22.1477H28.6977V17.0816H30.879C31.843 17.0816 32.6201 17.8343 32.6201 18.7606C32.6201 19.3975 32.2091 19.9693 31.6113 20.2371L32.7696 22.1477H31.6562L30.4246 20.389ZM29.7288 19.5133H30.8788C31.2673 19.5133 31.5886 19.1803 31.5886 18.7606C31.5886 18.3409 31.2673 18.0152 30.8788 18.0152H29.7288V19.5133ZM33.217 17.5231C33.217 17.2119 33.5751 16.9442 33.8964 16.9442C34.2251 16.9442 34.4052 17.2119 34.4052 17.5231C34.4052 17.8343 34.1361 18.095 33.8074 18.095C33.4861 18.095 33.217 17.8343 33.217 17.5231ZM33.3292 18.5291H34.2932V22.1479H33.3292V18.5291ZM38.8285 18.5291V21.9742C38.8285 23.161 37.8646 23.6968 36.8781 23.6968C36.0784 23.6968 35.436 23.4001 35.1071 22.8138L35.9291 22.3578C36.086 22.64 36.3326 22.8643 36.908 22.8643C37.5131 22.8643 37.8869 22.546 37.8869 21.9742V21.5834C37.6254 21.9236 37.2217 22.1334 36.6914 22.1334C35.6301 22.1334 34.8307 21.3012 34.8307 20.2807C34.8307 19.2676 35.6301 18.428 36.6914 18.428C37.222 18.428 37.6254 18.6378 37.8869 18.978V18.5294L38.8285 18.5291ZM37.8869 20.2805C37.8869 19.7087 37.446 19.2963 36.8406 19.2963C36.2355 19.2963 35.7946 19.7089 35.7946 20.2805C35.7946 20.8595 36.2355 21.272 36.8406 21.272C37.446 21.272 37.8869 20.8595 37.8869 20.2805ZM43.1914 19.9259V22.1477H42.2275V20.0417C42.2275 19.5496 41.9211 19.2963 41.4878 19.2963C41.017 19.2963 40.6658 19.5641 40.6658 20.1938V22.1479H39.7018V17.0816H40.6658V18.9343C40.89 18.6087 41.2785 18.4278 41.7792 18.4278C42.5713 18.4278 43.1914 18.9633 43.1914 19.9259ZM45.3053 19.4264V20.9319C45.3053 21.3226 45.5967 21.3299 46.1497 21.301V22.1477C44.797 22.2925 44.3414 21.9089 44.3414 20.9319V19.4264H43.6912V18.5289H44.3414V17.798L45.3053 17.5158V18.5289H46.1497V19.4264H45.3053ZM49.5642 21.0911C49.5642 21.8728 48.8618 22.249 48.0621 22.249C47.3148 22.249 46.7619 21.9452 46.493 21.3878L47.33 20.9319C47.4347 21.2286 47.6888 21.4023 48.0623 21.4023C48.3687 21.4023 48.578 21.301 48.578 21.0911C48.578 20.5627 46.6501 20.8523 46.6501 19.5786C46.6501 18.8403 47.3003 18.4278 48.0699 18.4278C48.6753 18.4278 49.1983 18.6955 49.4897 19.195L48.6677 19.6291C48.5554 19.3975 48.3464 19.26 48.0699 19.26C47.8307 19.26 47.6366 19.3614 47.6366 19.5567C47.6364 20.0923 49.5642 19.7595 49.5642 21.0911ZM29.7288 24.1187V25.32H31.9393V26.2755H29.7288V28.2295H28.6977V23.1633H31.9991V24.1185L29.7288 24.1187ZM32.3646 26.42C32.3646 25.3417 33.2388 24.5094 34.3373 24.5094C35.4358 24.5094 36.3176 25.3417 36.3176 26.42C36.3176 27.4984 35.4358 28.3307 34.3373 28.3307C33.2388 28.3307 32.3646 27.4984 32.3646 26.42ZM35.3537 26.42C35.3537 25.834 34.9128 25.4214 34.3373 25.4214C33.7694 25.4214 33.3285 25.834 33.3285 26.42C33.3285 27.0064 33.7694 27.4187 34.3373 27.4187C34.9128 27.4189 35.3537 27.0064 35.3537 26.42ZM40.2771 24.6108V28.2295H39.3131V27.8243C39.0889 28.15 38.7004 28.3309 38.1997 28.3309C37.4076 28.3309 36.7875 27.7954 36.7875 26.8328V24.611H37.7514V26.717C37.7514 27.2093 38.0578 27.4626 38.4911 27.4626C38.9619 27.4626 39.3131 27.1948 39.3131 26.5651V24.611L40.2771 24.6108ZM44.6475 26.0075V28.2293H43.6836V26.1233C43.6836 25.6312 43.3772 25.378 42.9439 25.378C42.4731 25.378 42.1219 25.6457 42.1219 26.2755V28.2295H41.158V24.6108H42.1219V25.016C42.3461 24.6903 42.7346 24.5094 43.2353 24.5094C44.0274 24.5094 44.6475 25.0449 44.6475 26.0075ZM49.2648 23.1633V28.2293H48.3008V27.8023C48.0317 28.1353 47.6357 28.3307 47.0903 28.3307C46.0889 28.3307 45.2671 27.4984 45.2671 26.42C45.2671 25.3417 46.0892 24.5094 47.0903 24.5094C47.6359 24.5094 48.032 24.7048 48.3008 25.0378V23.1633H49.2648ZM48.3008 26.42C48.3008 25.8121 47.8599 25.3996 47.2695 25.3996C46.6718 25.3996 46.2308 25.8121 46.2308 26.42C46.2308 27.028 46.6718 27.4405 47.2695 27.4405C47.8599 27.4407 48.3008 27.0282 48.3008 26.42ZM53.9048 24.6108V28.2295H52.9409V27.8025C52.6718 28.1282 52.2683 28.3309 51.7228 28.3309C50.7289 28.3309 49.9069 27.4987 49.9069 26.4203C49.9069 25.3419 50.7289 24.5096 51.7228 24.5096C52.2683 24.5096 52.6718 24.7124 52.9409 25.038V24.611L53.9048 24.6108ZM52.9409 26.42C52.9409 25.8121 52.4999 25.3996 51.9022 25.3996C51.312 25.3996 50.8711 25.8121 50.8711 26.42C50.8711 27.028 51.312 27.4405 51.9022 27.4405C52.4999 27.4407 52.9409 27.0282 52.9409 26.42ZM56.1153 25.5083V27.0137C56.1153 27.4044 56.4067 27.4118 56.9596 27.3828V28.2295C55.607 28.3743 55.1514 27.9907 55.1514 27.0137V25.5083H54.5014V24.6108H55.1514V23.8799L56.1153 23.5977V24.6108H56.9596V25.5083H56.1153ZM57.5271 23.6048C57.5271 23.2936 57.7962 23.0258 58.1175 23.0258C58.4461 23.0258 58.7152 23.2936 58.7152 23.6048C58.7152 23.916 58.4461 24.1764 58.1175 24.1764C57.7962 24.1766 57.5271 23.916 57.5271 23.6048ZM57.6391 24.6108H58.603V28.2295H57.6391V24.6108ZM59.1407 26.42C59.1407 25.3417 60.015 24.5094 61.1134 24.5094C62.2119 24.5094 63.0938 25.3417 63.0938 26.42C63.0938 27.4984 62.2119 28.3307 61.1134 28.3307C60.015 28.3307 59.1407 27.4984 59.1407 26.42ZM62.1298 26.42C62.1298 25.834 61.6889 25.4214 61.1134 25.4214C60.5456 25.4214 60.1047 25.834 60.1047 26.42C60.1047 27.0064 60.5456 27.4187 61.1134 27.4187C61.6889 27.4189 62.1298 27.0064 62.1298 26.42ZM67.113 26.0075V28.2293H66.1491V26.1233C66.1491 25.6312 65.8427 25.378 65.4094 25.378C64.9386 25.378 64.5874 25.6457 64.5874 26.2755V28.2295H63.6234V24.6108H64.5874V25.016C64.8116 24.6903 65.2001 24.5094 65.7008 24.5094C66.4929 24.5094 67.113 25.0449 67.113 26.0075Z" fill="#010101"/>
</svg>
