<svg width="25" height="26" viewBox="0 0 25 26" fill="none" xmlns="http://www.w3.org/2000/svg">
<path d="M18.9255 12.9959C18.9254 12.9713 18.923 12.9465 18.9182 12.9223C18.9153 12.9086 18.9104 12.8958 18.9064 12.8825C18.903 12.8711 18.9003 12.8593 18.8959 12.8481C18.889 12.8316 18.8801 12.817 18.8716 12.8018C18.8673 12.7945 18.8641 12.7865 18.8595 12.7793C18.8443 12.7568 18.8272 12.7359 18.8081 12.7167L16.1185 10.0272C15.9626 9.87126 15.7102 9.87126 15.5544 10.0272C15.3985 10.1829 15.3985 10.4355 15.5544 10.5913L17.5638 12.601H10.5214C10.301 12.601 10.1224 12.7796 10.1224 13C10.1224 13.2204 10.301 13.399 10.5214 13.399H17.5642L15.5541 15.4087C15.3982 15.5645 15.3982 15.8171 15.5541 15.9728C15.632 16.0507 15.7341 16.0896 15.8362 16.0896C15.9384 16.0896 16.0403 16.0507 16.1184 15.9728L18.8092 13.2823C18.8116 13.2799 18.8132 13.277 18.8154 13.2746C18.8312 13.258 18.8459 13.2406 18.8587 13.2217C18.8663 13.2103 18.8716 13.198 18.878 13.1859C18.8839 13.1751 18.8904 13.1645 18.8954 13.153C18.9013 13.1385 18.905 13.1235 18.9091 13.1087C18.912 13.0986 18.916 13.0889 18.918 13.0785C18.9232 13.0527 18.926 13.0265 18.926 13.0003C18.926 12.9987 18.9257 12.9971 18.9255 12.9959ZM14.0023 14.7557C13.7819 14.7557 13.6034 14.9343 13.6034 15.1547V18.8031C13.6034 19.0232 13.4245 19.2021 13.2044 19.2021H7.19685C6.97679 19.2021 6.7979 19.0232 6.7979 18.8031V7.19685C6.7979 6.97679 6.97679 6.7979 7.19685 6.7979H13.2044C13.4245 6.7979 13.6034 6.97679 13.6034 7.19685V10.7392C13.6034 10.9596 13.7819 11.1382 14.0023 11.1382C14.2227 11.1382 14.4013 10.9596 14.4013 10.7392V7.19685C14.4013 6.53683 13.8644 6 13.2044 6H7.19685C6.53683 6 6 6.53683 6 7.19685V18.8031C6 19.4632 6.53683 20 7.19685 20H13.2044C13.8644 20 14.4013 19.4632 14.4013 18.8031V15.1547C14.4013 14.9343 14.2225 14.7557 14.0023 14.7557Z" fill="#101010"/>
</svg>
