<svg width="15" height="14" viewBox="0 0 15 14" fill="none" xmlns="http://www.w3.org/2000/svg">
<path fill-rule="evenodd" clip-rule="evenodd" d="M5.89004 8.46276C3.9858 9.06128 2.6 10.8574 2.6 12.98C2.6 13.267 2.83296 13.5 3.12 13.5H11.44C11.727 13.5 11.96 13.267 11.96 12.98C11.96 10.8574 10.5742 9.06128 8.66996 8.46276C9.3964 7.99736 9.88 7.17836 9.88 6.24496C9.88 4.79468 8.71312 3.62 7.28 3.62C5.84688 3.62 4.68 4.79468 4.68 6.24496C4.68 7.17836 5.1636 7.99736 5.89004 8.46276ZM8.08236 3.20504C9.41408 3.56228 10.4 4.78636 10.4 6.24496C10.4 7.03172 10.113 7.75088 9.63924 8.30156C10.1577 8.56884 10.6257 8.92088 11.0256 9.34H14.04C14.327 9.34 14.56 9.10704 14.56 8.82C14.56 6.9636 13.3848 5.38748 11.7541 4.81548C12.35 4.38492 12.74 3.67772 12.74 2.87692C12.74 1.56236 11.6886 0.5 10.4 0.5C9.11144 0.5 8.06 1.56236 8.06 2.87692C8.06 2.98872 8.0678 3.09792 8.08236 3.20504ZM3.53444 9.34C3.93432 8.92088 4.40232 8.56884 4.92076 8.30156C4.44704 7.75088 4.16 7.03172 4.16 6.24496C4.16 4.78636 5.14592 3.56228 6.47764 3.20504C6.49272 3.09792 6.5 2.9882 6.5 2.87692C6.5 1.56236 5.44856 0.5 4.16 0.5C2.87144 0.5 1.82 1.56236 1.82 2.87692C1.82 3.67772 2.21 4.38492 2.80592 4.81548C1.1752 5.38748 0 6.9636 0 8.82C0 9.10704 0.23296 9.34 0.52 9.34H3.53444Z" fill="#004EEB"/>
</svg>
