<svg width="25" height="26" viewBox="0 0 25 26" fill="none" xmlns="http://www.w3.org/2000/svg">
<path d="M12.4251 20C12.1645 20 11.9039 19.9136 11.6912 19.7409L9.68689 18.1124C7.97909 16.7251 7 14.6671 7 12.4667V8.89788C7 7.91062 7.66888 7.0538 8.62696 6.81421L11.3588 6.13132C12.0557 5.95623 12.7928 5.95623 13.4915 6.13132L16.2227 6.81421C17.1808 7.05351 17.85 7.91062 17.85 8.89788V12.4667C17.85 14.6671 16.8706 16.7248 15.1628 18.1124L13.1585 19.7409C12.9461 19.9136 12.6857 20 12.4251 20ZM12.4251 6.58425C12.114 6.58425 11.803 6.62218 11.5006 6.69777L8.76849 7.38065C8.07102 7.55546 7.58366 8.1791 7.58366 8.89817V12.467C7.58366 14.4911 8.48454 16.3836 10.0552 17.6595L12.0595 19.2879C12.2713 19.4598 12.5786 19.4604 12.7905 19.2879L14.7948 17.6595C16.3657 16.3833 17.2666 14.4908 17.2666 12.467V8.89788C17.2666 8.17881 16.7793 7.55487 16.0815 7.38036L13.3499 6.69748C13.0473 6.62189 12.7362 6.58425 12.4251 6.58425Z" fill="#101010"/>
<path d="M12.4406 11.1792C11.4805 11.1792 10.6992 10.3983 10.6992 9.43813C10.6992 8.47801 11.4805 7.69678 12.4406 7.69678C13.4007 7.69678 14.1819 8.47801 14.1819 9.43813C14.1819 10.3983 13.4007 11.1792 12.4406 11.1792ZM12.4406 8.28044C11.802 8.28044 11.2829 8.79961 11.2829 9.43813C11.2829 10.0764 11.802 10.5955 12.4406 10.5955C13.0791 10.5955 13.5983 10.0764 13.5983 9.43813C13.5983 8.79961 13.0788 8.28044 12.4406 8.28044Z" fill="#101010"/>
<path d="M12.4264 16.7295C11.8489 16.7295 11.272 16.6247 10.7224 16.4149L10.2786 16.245C9.88109 16.0933 9.61377 15.7051 9.61377 15.2793V13.7939C9.61377 12.5624 10.6159 11.5605 11.8472 11.5605H13.0072C14.239 11.5605 15.2409 12.5627 15.2409 13.7939V15.2791C15.2409 15.7051 14.9735 16.0933 14.5755 16.2453L14.1278 16.4157C13.5795 16.625 13.0031 16.7295 12.4264 16.7295ZM11.8474 12.1442C10.9378 12.1442 10.1977 12.8843 10.1977 13.7939V15.2793C10.1977 15.465 10.3139 15.6336 10.4872 15.6996L10.9311 15.8694C11.895 16.2374 12.9564 16.2377 13.9203 15.87L14.3677 15.6996C14.541 15.6333 14.6575 15.4644 14.6575 15.2791V13.7939C14.6575 12.8843 13.9174 12.1442 13.0075 12.1442H11.8474Z" fill="#101010"/>
</svg>
