<svg width="30" height="33" viewBox="0 0 30 33" fill="none" xmlns="http://www.w3.org/2000/svg">
<rect x="0.5" y="0.5" width="29" height="32" rx="5" fill="#EEEEEE"/>
<path opacity="0.5" d="M14.9999 23.8593V22H11.3333V23.8593C11.3333 24.1133 11.3333 24.2403 11.4202 24.2917C11.5072 24.343 11.6261 24.2862 11.8639 24.1726L13.0026 23.6285C13.0831 23.5901 13.1233 23.571 13.1666 23.571C13.2099 23.571 13.2501 23.5901 13.3306 23.6286L14.4693 24.1726C14.7071 24.2862 14.826 24.343 14.9129 24.2917C14.9999 24.2403 14.9999 24.1133 14.9999 23.8593Z" fill="#004EEB"/>
<path d="M11.3334 22H10.8072C9.81391 22 9.46664 22.0052 9.20052 22.0624C8.72992 22.1636 8.3208 22.3805 8.02251 22.6735C7.92192 22.7723 7.87163 22.8217 7.75563 23.1364C7.63962 23.4512 7.65799 23.5847 7.69473 23.8517C7.70122 23.8988 7.7082 23.9448 7.71572 23.9897C7.8159 24.5876 7.99912 24.9042 8.28014 25.1297C8.56117 25.3552 8.95573 25.5022 9.70079 25.5826C10.4678 25.6654 11.4843 25.6667 12.9418 25.6667H17.0034C18.4609 25.6667 19.4774 25.6654 20.2444 25.5826C20.9895 25.5022 21.384 25.3552 21.6651 25.1297C21.946 24.9042 22.1293 24.5876 22.2295 23.9897C22.3136 23.4876 22.3302 22.8521 22.3334 22H15.0001V23.8593C15.0001 24.1133 15.0001 24.2403 14.9131 24.2917C14.8262 24.343 14.7073 24.2862 14.4694 24.1726L13.3307 23.6286C13.2503 23.5901 13.21 23.571 13.1667 23.571C13.1235 23.571 13.0832 23.5901 13.0028 23.6285L11.8641 24.1726C11.6262 24.2862 11.5073 24.343 11.4204 24.2917C11.3334 24.2403 11.3334 24.1133 11.3334 23.8593V22Z" fill="#004EEB"/>
<path opacity="0.5" d="M8.33333 8.00571C8.61328 7.7234 9.00632 7.53934 9.74853 7.43871C10.5126 7.33512 11.5252 7.3335 12.9771 7.3335H17.0231C18.475 7.3335 19.4876 7.33512 20.2517 7.43871C20.9939 7.53934 21.3869 7.7234 21.6668 8.00571C21.9468 8.28802 22.1293 8.68437 22.2291 9.43285C22.3318 10.2033 22.3334 11.2245 22.3334 12.6887V22.0002H10.8072C9.81391 22.0002 9.46664 22.0054 9.20052 22.0626C8.72992 22.1638 8.3208 22.3807 8.02252 22.6736C7.92192 22.7725 7.87163 22.8219 7.75563 23.1366C7.68907 23.3171 7.66675 23.4381 7.66675 23.5588V12.6887C7.66675 11.2245 7.66836 10.2033 7.77108 9.43285C7.87087 8.68437 8.05339 8.28802 8.33333 8.00571Z" fill="#004EEB"/>
<path d="M10.6458 11.9165C10.6458 11.5368 10.9536 11.229 11.3333 11.229H18.6666C19.0463 11.229 19.3541 11.5368 19.3541 11.9165C19.3541 12.2962 19.0463 12.604 18.6666 12.604H11.3333C10.9536 12.604 10.6458 12.2962 10.6458 11.9165Z" fill="#004EEB"/>
<path d="M11.3333 14.4375C10.9536 14.4375 10.6458 14.7453 10.6458 15.125C10.6458 15.5047 10.9536 15.8125 11.3333 15.8125H15.9166C16.2963 15.8125 16.6041 15.5047 16.6041 15.125C16.6041 14.7453 16.2963 14.4375 15.9166 14.4375H11.3333Z" fill="#004EEB"/>
</svg>
