<svg width="25" height="26" viewBox="0 0 25 26" fill="none" xmlns="http://www.w3.org/2000/svg">
<path d="M12.6361 6C11.2304 6 10.0907 7.13972 10.0907 8.54537C10.0907 9.26013 10.3878 9.90444 10.8625 10.3668L8.8584 13.8736L9.96452 14.5032L11.9711 10.992C12.1844 11.0499 12.4043 11.0909 12.6361 11.0909C14.0417 11.0909 15.1814 9.95102 15.1814 8.54537C15.1814 7.13972 14.0417 6 12.6361 6ZM12.6361 9.81815C11.9332 9.81815 11.3633 9.24829 11.3633 8.54537C11.3633 7.84245 11.9332 7.27278 12.6361 7.27278C13.339 7.27278 13.9089 7.84245 13.9089 8.54537C13.9089 9.24829 13.339 9.81815 12.6361 9.81815Z" fill="#565656"/>
<path d="M10.0006 16.8183C9.71675 15.7226 8.72995 14.9092 7.54537 14.9092C6.13972 14.9092 5 16.0489 5 17.4545C5 18.8602 6.13972 20.0001 7.54537 20.0001C8.72995 20.0001 9.71675 19.1865 10.0006 18.091H13.966V16.8183H10.0006ZM7.54537 18.7273C6.84245 18.7273 6.27278 18.1575 6.27278 17.4545C6.27278 16.7516 6.84245 16.182 7.54537 16.182C8.24829 16.182 8.81815 16.7516 8.81815 17.4545C8.81815 18.1575 8.24829 18.7273 7.54537 18.7273Z" fill="#565656"/>
<path d="M17.7271 14.9091C17.4951 14.9091 17.2752 14.9501 17.0622 15.0079L15.0555 11.4966L13.9492 12.1262L15.9534 15.633C15.4788 16.0953 15.1815 16.7393 15.1815 17.4544C15.1815 18.8601 16.3214 20 17.7271 20C19.1327 20 20.2725 18.8601 20.2725 17.4544C20.2725 16.0488 19.1327 14.9091 17.7271 14.9091ZM17.7271 18.7272C17.0242 18.7272 16.4543 18.1573 16.4543 17.4544C16.4543 16.7515 17.0242 16.1818 17.7271 16.1818C18.43 16.1818 18.9997 16.7515 18.9997 17.4544C18.9997 18.1573 18.43 18.7272 17.7271 18.7272Z" fill="#565656"/>
</svg>
