<svg width="19" height="19" viewBox="0 0 19 19" fill="none" xmlns="http://www.w3.org/2000/svg">
<path d="M7.63462 18.5L7.27309 15.6077C6.95386 15.5115 6.60867 15.3603 6.23752 15.1538C5.86637 14.9474 5.55066 14.7263 5.29039 14.4904L2.62309 15.625L0.75769 12.375L3.06347 10.6365C3.03398 10.4558 3.00962 10.2695 2.99039 10.0779C2.97116 9.88621 2.96154 9.69999 2.96154 9.51923C2.96154 9.35128 2.97116 9.17467 2.99039 8.98942C3.00962 8.80418 3.03398 8.59552 3.06347 8.36348L0.75769 6.625L2.62309 3.41345L5.27117 4.52885C5.56988 4.28013 5.89296 4.05578 6.24039 3.85578C6.58782 3.65578 6.92565 3.50128 7.25387 3.3923L7.63462 0.5H11.3654L11.7269 3.41153C12.1103 3.54614 12.4491 3.70063 12.7433 3.875C13.0375 4.04935 13.3404 4.2673 13.6519 4.52885L16.3769 3.41345L18.2423 6.625L15.8596 8.42115C15.9148 8.62757 15.9455 8.81699 15.9519 8.98942C15.9584 9.16186 15.9616 9.33205 15.9616 9.5C15.9616 9.65513 15.9552 9.81892 15.9423 9.99135C15.9295 10.1638 15.9 10.3724 15.8539 10.6173L18.1981 12.375L16.3327 15.625L13.6519 14.4712C13.3404 14.7327 13.0269 14.9571 12.7116 15.1442C12.3962 15.3314 12.068 15.4795 11.7269 15.5885L11.3654 18.5H7.63462ZM8.50002 17.5H10.4558L10.825 14.7923C11.3289 14.659 11.7824 14.476 12.1856 14.2433C12.5888 14.0106 12.9994 13.6917 13.4173 13.2866L15.9116 14.35L16.9058 12.65L14.7173 11.0058C14.8006 10.7212 14.8558 10.4593 14.8827 10.2202C14.9096 9.9811 14.9231 9.74103 14.9231 9.5C14.9231 9.24615 14.9096 9.00608 14.8827 8.7798C14.8558 8.55352 14.8006 8.30448 14.7173 8.0327L16.9442 6.35L15.95 4.65L13.3981 5.71922C13.0955 5.38717 12.6978 5.07596 12.2048 4.78557C11.7119 4.49519 11.2455 4.30257 10.8058 4.2077L10.5 1.5H8.50579L8.19424 4.18845C7.69039 4.29615 7.22725 4.46955 6.80481 4.70865C6.38238 4.94775 5.96219 5.27627 5.54424 5.69422L3.05002 4.65L2.05579 6.35L4.22502 7.96922C4.14168 8.19359 4.08335 8.43718 4.05002 8.7C4.01668 8.96282 4.00002 9.23589 4.00002 9.51923C4.00002 9.77308 4.01668 10.025 4.05002 10.275C4.08335 10.525 4.13527 10.7686 4.20579 11.0058L2.05579 12.65L3.05002 14.35L5.52502 13.3C5.91732 13.6961 6.32469 14.0138 6.74714 14.2529C7.16957 14.492 7.64553 14.6782 8.17502 14.8116L8.50002 17.5ZM9.47309 12C10.1705 12 10.7615 11.7577 11.2462 11.2731C11.7308 10.7885 11.9731 10.1974 11.9731 9.5C11.9731 8.80257 11.7308 8.21154 11.2462 7.72693C10.7615 7.24231 10.1705 7 9.47309 7C8.77181 7 8.17982 7.24231 7.69712 7.72693C7.21443 8.21154 6.97309 8.80257 6.97309 9.5C6.97309 10.1974 7.21443 10.7885 7.69712 11.2731C8.17982 11.7577 8.77181 12 9.47309 12Z" fill="#101010"/>
</svg>
