<svg width="25" height="26" viewBox="0 0 25 26" fill="none" xmlns="http://www.w3.org/2000/svg">
<path d="M8.61922 11.4717H14.3458C14.4863 11.4717 14.6003 11.3579 14.6003 11.2172C14.6003 11.0767 14.4863 10.9627 14.3458 10.9627H8.61922C8.47856 10.9627 8.36471 11.0767 8.36471 11.2172C8.36471 11.3579 8.47873 11.4717 8.61922 11.4717ZM8.61922 10.0393H14.3458C14.4863 10.0393 14.6003 9.92546 14.6003 9.7848C14.6003 9.64431 14.4863 9.53029 14.3458 9.53029H8.61922C8.47856 9.53029 8.36471 9.64431 8.36471 9.7848C8.36471 9.92546 8.47873 10.0393 8.61922 10.0393ZM8.61922 12.7558H13.3277C13.4682 12.7558 13.5823 12.642 13.5823 12.5013C13.5823 12.3608 13.4682 12.2468 13.3277 12.2468H8.61922C8.47856 12.2468 8.36471 12.3608 8.36471 12.5013C8.36471 12.642 8.47873 12.7558 8.61922 12.7558ZM11.631 13.5309H8.61922C8.47856 13.5309 8.36471 13.6449 8.36471 13.7854C8.36471 13.9259 8.47856 14.0399 8.61922 14.0399H11.631C11.7716 14.0399 11.8855 13.9259 11.8855 13.7854C11.8855 13.6449 11.7716 13.5309 11.631 13.5309ZM10.7906 14.8147H8.61922C8.47856 14.8147 8.36471 14.9287 8.36471 15.0692C8.36471 15.2097 8.47856 15.3237 8.61922 15.3237H10.7906C10.9312 15.3237 11.0451 15.2097 11.0451 15.0692C11.0451 14.9287 10.9312 14.8147 10.7906 14.8147ZM16.4822 15.1498L14.7191 17.2275L13.5926 16.3313C13.483 16.2437 13.3225 16.2619 13.2351 16.372C13.1475 16.4818 13.1659 16.6421 13.2758 16.7295L14.5951 17.7794C14.6417 17.8168 14.6977 17.8348 14.7535 17.8348C14.8258 17.8348 14.8974 17.804 14.9478 17.745L16.8702 15.4791C16.961 15.3719 16.9481 15.2114 16.8407 15.1204C16.7333 15.0293 16.573 15.0426 16.4822 15.1498ZM15.9652 13.0175V8.66545C15.9652 8.59825 15.9387 8.53395 15.8912 8.4861L13.5015 6.07534C13.4538 6.02715 13.3888 6 13.321 6H7.25451C7.11385 6 7 6.11402 7 6.25451V17.921C7 18.0614 7.11385 18.1755 7.25451 18.1755H11.954C12.5622 19.2624 13.7236 20 15.0554 20C17.0143 20 18.6077 18.4064 18.6077 16.4475C18.6077 14.8035 17.484 13.4208 15.9652 13.0175ZM13.5755 6.87299L15.0998 8.41093H13.5755V6.87299ZM11.7228 17.6664H7.50903V6.50903H13.0663V8.66545C13.0663 8.80594 13.1803 8.91996 13.3208 8.91996H15.456V12.9191C15.3242 12.9041 15.1908 12.8948 15.0554 12.8948C13.0965 12.8948 11.5027 14.4886 11.5027 16.4475C11.5029 16.8763 11.583 17.2857 11.7228 17.6664ZM15.0556 19.491C13.3773 19.491 12.0119 18.1258 12.0119 16.4475C12.0119 14.7692 13.3773 13.4038 15.0556 13.4038C16.7338 13.4038 18.0989 14.7692 18.0989 16.4475C18.0989 18.1258 16.7337 19.491 15.0556 19.491Z" fill="#101010"/>
</svg>
