<svg width="29" height="34" viewBox="0 0 29 34" fill="none" xmlns="http://www.w3.org/2000/svg">
<path d="M0 10.5C0 4.97715 4.47715 0.5 10 0.5H19C24.5228 0.5 29 4.97715 29 10.5V22.5C29 28.0228 24.5228 32.5 19 32.5H10C4.47715 32.5 0 28.0228 0 22.5V10.5Z" fill="#FDFDFC"/>
<rect y="0.5" width="29" height="33" rx="5" fill="#EEEEEE"/>
<path opacity="0.5" fill-rule="evenodd" clip-rule="evenodd" d="M14.3921 8.3335C13.3711 8.3335 12.4412 8.88414 10.5816 9.98543L9.95261 10.3579C8.09295 11.4592 7.16312 12.0099 6.65261 12.9168C6.14209 13.8238 6.14209 14.9251 6.14209 17.1277V17.8726C6.14209 20.0753 6.14209 21.1765 6.65261 22.0835C7.16312 22.9904 8.09295 23.5411 9.95261 24.6424L10.5816 25.0149C12.4412 26.1162 13.3711 26.6668 14.3921 26.6668C15.4131 26.6668 16.3429 26.1162 18.2026 25.0149L18.8316 24.6424C20.6912 23.5411 21.6211 22.9904 22.1316 22.0835C22.6421 21.1765 22.6421 20.0753 22.6421 17.8726V17.1277C22.6421 14.9251 22.6421 13.8238 22.1316 12.9168C21.6211 12.0099 20.6912 11.4592 18.8316 10.3579L18.2026 9.98543C16.3429 8.88414 15.4131 8.3335 14.3921 8.3335Z" fill="#004EEB"/>
<path d="M14.3921 14.0625C12.4936 14.0625 10.9546 15.6015 10.9546 17.5C10.9546 19.3985 12.4936 20.9375 14.3921 20.9375C16.2906 20.9375 17.8296 19.3985 17.8296 17.5C17.8296 15.6015 16.2906 14.0625 14.3921 14.0625Z" fill="#004EEB"/>
</svg>
