<svg width="25" height="26" viewBox="0 0 25 26" fill="none" xmlns="http://www.w3.org/2000/svg">
<path d="M12.3815 10.8975C10.8934 10.8975 9.68256 9.6871 9.68256 8.19897C9.68256 6.71085 10.8934 5.5 12.3815 5.5C13.8697 5.5 15.0805 6.71085 15.0805 8.19897C15.0805 9.6871 13.8697 10.8975 12.3815 10.8975ZM12.3815 6.40463C11.3919 6.40463 10.5872 7.20931 10.5872 8.19897C10.5872 9.18819 11.3919 9.99286 12.3815 9.99286C13.3712 9.99286 14.1759 9.18819 14.1759 8.19897C14.1759 7.20931 13.3707 6.40463 12.3815 6.40463Z" fill="#565656"/>
<path d="M12.3594 19.5002C11.4643 19.5002 10.5701 19.3378 9.71835 19.0126L9.03038 18.7494C8.41432 18.5142 8 17.9126 8 17.2526V14.9503C8 13.0416 9.55326 11.4888 11.4616 11.4888H13.2595C15.1688 11.4888 16.7216 13.042 16.7216 14.9503V17.2522C16.7216 17.9126 16.3073 18.5142 15.6903 18.7498L14.9964 19.014C14.1465 19.3383 13.2532 19.5002 12.3594 19.5002ZM11.462 12.3934C10.0522 12.3934 8.90509 13.5405 8.90509 14.9503V17.2526C8.90509 17.5403 9.08511 17.8018 9.35378 17.904L10.0418 18.1672C11.5358 18.7376 13.1808 18.7381 14.6748 18.1681L15.3682 17.904C15.6369 17.8013 15.8174 17.5394 15.8174 17.2522V14.9503C15.8174 13.5405 14.6703 12.3934 13.26 12.3934H11.462Z" fill="#565656"/>
<path d="M16.701 18.3739L19.8741 15.4617C20.1405 15.2172 20.1422 14.7976 19.8778 14.5509C19.6409 14.3299 19.2738 14.3285 19.0351 14.5475L16.362 17.0009C16.2666 17.0885 16.1201 17.0887 16.0245 17.0013L14.9606 16.0301C14.7242 15.8143 14.3621 15.8148 14.1262 16.0312C13.8595 16.2761 13.8595 16.6968 14.1262 16.9416L15.6868 18.3739C15.9736 18.6371 16.4142 18.6371 16.701 18.3739Z" fill="#565656" stroke="#FDFDFC" stroke-width="0.5"/>
</svg>
