<svg width="25" height="26" viewBox="0 0 25 26" fill="none" xmlns="http://www.w3.org/2000/svg">
<path d="M17.25 6H6.75C6.28598 6.00037 5.84108 6.18486 5.51297 6.51297C5.18486 6.84108 5.00037 7.28598 5 7.75V18.25C5.00037 18.714 5.18486 19.1589 5.51297 19.487C5.84108 19.8151 6.28598 19.9996 6.75 20H17.25C17.714 19.9996 18.1589 19.8151 18.487 19.487C18.8151 19.1589 18.9996 18.714 19 18.25V7.75C18.9996 7.28598 18.8151 6.84108 18.487 6.51297C18.1589 6.18486 17.714 6.00037 17.25 6ZM18.3 18.25C18.2996 18.5284 18.1889 18.7952 17.9921 18.9921C17.7952 19.1889 17.5284 19.2996 17.25 19.3H6.75C6.47164 19.2996 6.20478 19.1889 6.00795 18.9921C5.81111 18.7952 5.70037 18.5284 5.7 18.25V7.75C5.70037 7.47164 5.81111 7.20478 6.00795 7.00795C6.20478 6.81111 6.47164 6.70037 6.75 6.7H17.25C17.5284 6.70037 17.7952 6.81111 17.9921 7.00795C18.1889 7.20478 18.2996 7.47164 18.3 7.75V18.25Z" fill="#565656"/>
<path d="M15.1498 9.5H8.8498C8.57144 9.50037 8.30458 9.61111 8.10775 9.80795C7.91092 10.0048 7.80018 10.2716 7.7998 10.55V14.4C7.80018 14.6784 7.91092 14.9452 8.10775 15.1421C8.30458 15.3389 8.57144 15.4496 8.8498 15.45H15.1498C15.4282 15.4496 15.695 15.3389 15.8919 15.1421C16.0887 14.9452 16.1994 14.6784 16.1998 14.4V10.55C16.1994 10.2716 16.0887 10.0048 15.8919 9.80795C15.695 9.61111 15.4282 9.50037 15.1498 9.5ZM15.4998 14.4C15.4998 14.4928 15.4629 14.5819 15.3973 14.6475C15.3317 14.7131 15.2426 14.75 15.1498 14.75H8.8498C8.75698 14.75 8.66796 14.7131 8.60232 14.6475C8.53668 14.5819 8.4998 14.4928 8.4998 14.4V10.55C8.4998 10.4572 8.53668 10.3682 8.60232 10.3025C8.66796 10.2369 8.75698 10.2 8.8498 10.2H15.1498C15.2426 10.2 15.3317 10.2369 15.3973 10.3025C15.4629 10.3682 15.4998 10.4572 15.4998 10.55V14.4Z" fill="#565656"/>
<path d="M13.0501 15.7998H10.9501C10.8573 15.7998 10.7682 15.8367 10.7026 15.9023C10.637 15.968 10.6001 16.057 10.6001 16.1498C10.6001 16.2426 10.637 16.3317 10.7026 16.3973C10.7682 16.4629 10.8573 16.4998 10.9501 16.4998H13.0501C13.1429 16.4998 13.2319 16.4629 13.2976 16.3973C13.3632 16.3317 13.4001 16.2426 13.4001 16.1498C13.4001 16.057 13.3632 15.968 13.2976 15.9023C13.2319 15.8367 13.1429 15.7998 13.0501 15.7998Z" fill="#565656"/>
</svg>
